<svg enable-background="new -5.076 -5.075 100 100" viewBox="-5.076 -5.075 100 125" xmlns="http://www.w3.org/2000/svg" fill="#e7e7e7"><path d="m49.932 14.384c-2.453.914-3.96 3.473-3.96 6.736 0 2.368.542 3.907 1.777 4.985 1.353 1.182 2.772 1.318 4.528.456 1.726-.861 2.724-2.21 3.313-4.474 1.239-4.818-1.888-9.049-5.658-7.703z"/><path d="m45.731 30.711c-2.991.618-6.277 3.149-9.242 7.139-2.1 2.802-3.014 4.765-2.611 5.523.161.298.456.538.676.538.19 0 1.292-1.4 2.45-3.123 1.157-1.699 2.45-3.395 2.882-3.774 1.616-1.371 2.885-.457 2.289 1.699-.132.568-1.59 5.387-3.18 10.721-3.448 11.455-4.15 14.465-4.174 17.778 0 2.074.079 2.559.617 3.395 1.242 2.018 3.963 2.264 7.221.68 4.446-2.213 10.826-9.835 10.556-12.637-.048-.542-.21-.863-.451-.863-.408 0-.781.46-3.583 4.342-2.427 3.337-3.984 3.884-3.984 1.374 0-.593 1.398-6.037 3.094-12.126 1.696-6.085 3.235-11.819 3.397-12.79.409-2.234.192-4.904-.487-6.034-.944-1.627-3.019-2.329-5.47-1.842z"/><path d="m44.923 89.85c-24.773 0-44.923-20.157-44.923-44.928s20.15-44.922 44.923-44.922c24.769 0 44.925 20.15 44.925 44.922s-20.157 44.928-44.925 44.928zm0-86.618c-22.987 0-41.691 18.704-41.691 41.69 0 22.985 18.701 41.692 41.691 41.692 22.988 0 41.689-18.701 41.689-41.692 0-22.989-18.701-41.69-41.689-41.69z"/></svg>