<svg xmlns="http://www.w3.org/2000/svg" xmlns:xlink="http://www.w3.org/1999/xlink" version="1.1" x="0px" y="0px" viewBox="0 0 100 125" style="enable-background:new 0 0 100 100;" xml:space="preserve"><path d="M87.158,28.188H74.907V10.012c0-1.296-1.05-2.346-2.346-2.346H33.747c-0.622,0-1.218,0.247-1.658,0.687l-6.309,6.308  c-0.44,0.44-0.687,1.037-0.687,1.659v11.868h-12.25C8.518,28.188,5,31.707,5,36.031v29.455c0,4.324,3.518,7.843,7.842,7.843h12.25  v16.66c0,1.296,1.05,2.346,2.346,2.346h45.123c1.296,0,2.346-1.05,2.346-2.346v-16.66h12.251c4.324,0,7.842-3.518,7.842-7.843  V36.031C95,31.707,91.482,28.188,87.158,28.188z M29.783,17.292l4.935-4.934h35.497v15.83H29.783V17.292z M70.216,87.642H29.783  V53.104h40.432V87.642z M90.309,65.485c0,1.737-1.414,3.151-3.151,3.151H74.907V53.104h4.417c1.296,0,2.346-1.05,2.346-2.346  c0-1.296-1.05-2.346-2.346-2.346h-6.763H27.438h-6.762c-1.296,0-2.346,1.05-2.346,2.346c0,1.296,1.05,2.346,2.346,2.346h4.416  v15.532h-12.25c-1.737,0-3.151-1.413-3.151-3.151V36.031c0-1.737,1.414-3.151,3.151-3.151h74.315c1.737,0,3.151,1.413,3.151,3.151  V65.485z M82.253,34.964c-3.293,0-5.972,2.679-5.972,5.971c0,3.293,2.679,5.972,5.972,5.972c3.292,0,5.97-2.679,5.97-5.972  C88.223,37.643,85.545,34.964,82.253,34.964z M82.253,42.215c-0.706,0-1.281-0.574-1.281-1.28c0-0.706,0.574-1.279,1.281-1.279  c0.706,0,1.279,0.574,1.279,1.279C83.532,41.641,82.958,42.215,82.253,42.215z M65.05,60.787c0,1.296-1.05,2.346-2.346,2.346H37.295  c-1.296,0-2.346-1.05-2.346-2.346s1.05-2.346,2.346-2.346h25.409C64,58.441,65.05,59.491,65.05,60.787z M65.05,70.373  c0,1.296-1.05,2.346-2.346,2.346H37.295c-1.296,0-2.346-1.05-2.346-2.346c0-1.296,1.05-2.346,2.346-2.346h25.409  C64,68.027,65.05,69.077,65.05,70.373z M65.05,79.958c0,1.296-1.05,2.346-2.346,2.346H37.295c-1.296,0-2.346-1.05-2.346-2.346  c0-1.296,1.05-2.346,2.346-2.346h25.409C64,77.613,65.05,78.663,65.05,79.958z"/></svg>