<svg viewBox="0 0 32 40" xmlns="http://www.w3.org/2000/svg"><path d="m21.79 19.04c-1.32 0-2.51.56-3.36 1.45l-5.05-2.85c.19-.51.31-1.06.31-1.64s-.12-1.12-.31-1.62l4.83-2.73c.85 1.03 2.13 1.7 3.57 1.7 2.56 0 4.65-2.08 4.65-4.65s-2.09-4.65-4.65-4.65-4.65 2.09-4.65 4.65c0 .4.07.79.17 1.17l-5 2.82c-.84-.83-1.99-1.34-3.26-1.34-2.56 0-4.65 2.09-4.65 4.65s2.09 4.65 4.65 4.65c1.26 0 2.41-.51 3.25-1.33l5.11 2.89c-.16.47-.26.96-.26 1.48 0 2.56 2.08 4.65 4.65 4.65s4.65-2.08 4.65-4.65-2.09-4.65-4.65-4.65zm0-12.99c1.46 0 2.65 1.19 2.65 2.65s-1.19 2.65-2.65 2.65-2.65-1.19-2.65-2.65 1.19-2.65 2.65-2.65zm-12.74 12.6c-1.46 0-2.65-1.19-2.65-2.65s1.19-2.65 2.65-2.65 2.65 1.19 2.65 2.65-1.19 2.65-2.65 2.65zm12.74 7.69c-1.46 0-2.65-1.19-2.65-2.65s1.19-2.65 2.65-2.65 2.65 1.19 2.65 2.65-1.19 2.65-2.65 2.65z"/></svg>