<svg enable-background="new 0 0 100 100" viewBox="0 0 100 125" xmlns="http://www.w3.org/2000/svg"><path clip-rule="evenodd" d="m12.08 86v-51.436c0-1.06.86-1.92 1.92-1.92h8.362v-8.362c0-1.06.86-1.92 1.92-1.92h8.362v-8.362c0-1.06.86-1.92 1.92-1.92h51.436c1.06 0 1.92.86 1.92 1.92v51.436c0 1.06-.86 1.92-1.92 1.92h-8.362v8.362c0 1.06-.86 1.92-1.92 1.92h-8.362v8.362c0 1.06-.86 1.92-1.92 1.92h-51.436c-1.06 0-1.92-.86-1.92-1.92zm24.404-63.638h39.234c1.06 0 1.92.86 1.92 1.92v39.234h6.442v-47.596h-47.596zm-10.282 10.282h39.234c1.06 0 1.92.86 1.92 1.92v39.234h6.442v-47.596h-47.596zm-10.282 3.84v47.596h47.596v-47.596z" fill-rule="evenodd"/></svg>