<svg xmlns="http://www.w3.org/2000/svg" viewBox="0 0 64 80" fill="none" x="0px" y="0px"><path d="M59.7405 4.25953C56.7278 1.24682 51.8432 1.24682 48.8305 4.25953L26.3176 26.7725C26.0274 27.0626 25.8335 27.435 25.7622 27.8391L24.0305 37.6524C23.917 38.2951 24.1243 38.9527 24.5858 39.4142C25.0473 39.8757 25.7049 40.083 26.3476 39.9696L36.1609 38.2378C36.565 38.1665 36.9374 37.9726 37.2276 37.6824L59.7405 15.1695C62.7532 12.1568 62.7532 7.27224 59.7405 4.25953Z" fill="black"/><path d="M52 34C53.1046 34 54 34.8954 54 36L54 56C54 59.3137 51.3137 62 48 62L8 62C4.68629 62 2 59.3137 2 56L2 16C2 12.6863 4.68629 10 8 10L28 10C29.1046 10 30 10.8954 30 12C30 13.1046 29.1046 14 28 14L8 14C6.89543 14 6 14.8954 6 16L6 56C6 57.1046 6.89543 58 8 58L48 58C49.1046 58 50 57.1046 50 56L50 36C50 34.8954 50.8954 34 52 34Z" fill="black"/></svg>