<svg width="334" height="87" viewBox="0 0 334 87" fill="none" xmlns="http://www.w3.org/2000/svg">
<path d="M15.3686 35.5422H16.6026V36.5481H1.34615V35.5422H2.69231C4.11325 35.5422 5.16026 35.1324 5.83333 34.3128C6.28205 33.7167 6.50641 32.3754 6.50641 30.2891V7.26491C6.50641 5.47663 6.39423 4.32169 6.16987 3.80011C5.94551 3.35304 5.57158 2.94322 5.04808 2.57066C4.30021 2.1981 3.51496 2.01182 2.69231 2.01182H1.34615V1.00591H16.6026V2.01182H15.3686C13.9476 2.01182 12.9006 2.42164 12.2276 3.24127C11.7788 3.83736 11.5545 5.17858 11.5545 7.26491V30.2891C11.5545 32.0774 11.6667 33.2696 11.891 33.8657C12.0406 34.2382 12.4145 34.6108 13.0128 34.9834C13.7607 35.3559 14.5459 35.5422 15.3686 35.5422ZM13.9103 35.5422H15.2564V36.5481H0V35.5422H1.23397C2.7297 35.5422 3.77671 35.1324 4.375 34.3128C4.82372 33.7167 5.04808 32.3754 5.04808 30.2891V7.26491C5.04808 5.47663 4.9359 4.32169 4.71154 3.80011C4.56197 3.35304 4.18804 2.94322 3.58974 2.57066C2.84188 2.1981 2.05662 2.01182 1.23397 2.01182H0V1.00591H15.2564V2.01182H13.9103C12.4893 2.01182 11.4423 2.42164 10.7692 3.24127C10.3205 3.83736 10.0962 5.17858 10.0962 7.26491V30.2891C10.0962 32.0774 10.2083 33.2696 10.4327 33.8657C10.5823 34.2382 10.9562 34.6108 11.5545 34.9834C12.3024 35.3559 13.0876 35.5422 13.9103 35.5422ZM42.2917 36.5481H41.5064L27.7083 6.70608V30.4009C27.7083 32.5617 27.9327 33.9029 28.3814 34.4245C29.0545 35.1696 30.0641 35.5422 31.4103 35.5422H32.7564V36.5481H20.3045V35.5422H21.5385C23.109 35.5422 24.1934 35.0951 24.7917 34.201C25.1656 33.6794 25.3526 32.4127 25.3526 30.4009V7.15315C25.3526 5.5884 25.1656 4.47072 24.7917 3.80011C24.5673 3.27853 24.1186 2.86871 23.4455 2.57066C22.8472 2.1981 21.8002 2.01182 20.3045 2.01182V1.00591H30.4006L43.3013 28.8361L56.0897 1.00591H66.1859V2.01182H64.9519C63.3814 2.01182 62.297 2.45889 61.6987 3.35304C61.3248 3.94913 61.1378 5.21584 61.1378 7.15315V30.4009C61.1378 32.5617 61.3622 33.9029 61.8109 34.4245C62.484 35.1696 63.531 35.5422 64.9519 35.5422H66.1859V36.5481H51.0417V35.5422H52.2756C53.7714 35.5422 54.8558 35.0951 55.5289 34.201C55.9028 33.6794 56.0897 32.4127 56.0897 30.4009V6.70608L42.2917 36.5481ZM40.8333 36.5481H39.9359L26.25 6.59431V30.4009C26.25 32.5617 26.4744 33.9029 26.9231 34.4245C27.5962 35.1696 28.6058 35.5422 29.9519 35.5422H31.2981V36.5481H18.8462V35.5422H20.0801C21.5759 35.5422 22.6603 35.0951 23.3333 34.201C23.7073 33.6049 23.8942 32.3009 23.8942 30.2891V7.15315C23.8942 5.5884 23.7073 4.43346 23.3333 3.68834C23.109 3.24127 22.6603 2.83145 21.9872 2.45889C21.3141 2.08633 20.2671 1.90005 18.8462 1.90005V1.00591H28.9423L41.843 28.7244L54.6314 1.00591H64.7276V1.90005H63.4936C61.9231 1.90005 60.8387 2.38438 60.2404 3.35304C59.8665 3.87462 59.6795 5.14132 59.6795 7.15315V30.2891C59.6795 32.5245 59.9039 33.9029 60.3526 34.4245C61.0256 35.1696 62.0727 35.5422 63.4936 35.5422H64.7276V36.5481H49.5833V35.5422H50.8173C52.313 35.5422 53.3974 35.0951 54.0705 34.201C54.4445 33.6049 54.6314 32.3009 54.6314 30.2891V6.59431L40.8333 36.5481ZM79.6474 19.8947V30.2891C79.6474 32.5245 79.9092 33.9029 80.4327 34.4245C81.1058 35.1696 82.1154 35.5422 83.4615 35.5422H84.8077V36.5481H69.5513V35.5422H70.8974C72.3932 35.5422 73.4776 35.0579 74.1506 34.0892C74.4498 33.5676 74.5994 32.3009 74.5994 30.2891V7.37668C74.5994 5.14132 74.375 3.7256 73.9263 3.1295C73.2532 2.38438 72.2436 2.01182 70.8974 2.01182H69.5513V1.00591H82.5641C85.7799 1.00591 88.3227 1.34122 90.1923 2.01182C91.9872 2.68243 93.5203 3.80011 94.7917 5.36486C96.063 6.92961 96.6987 8.75515 96.6987 10.8415C96.6987 13.7475 95.7265 16.1318 93.7821 17.9946C91.9124 19.7829 89.2201 20.6771 85.7051 20.6771C84.8077 20.6771 83.8729 20.6026 82.9007 20.4535C81.9284 20.379 80.844 20.1927 79.6474 19.8947ZM79.6474 3.68834V18.4417C80.6197 18.5907 81.4797 18.7025 82.2276 18.777C82.9007 18.926 83.4989 19.0005 84.0224 19.0005C85.8173 19.0005 87.3878 18.2927 88.734 16.877C90.0801 15.4612 90.7532 13.6357 90.7532 11.4003C90.7532 9.83558 90.4167 8.41985 89.7436 7.15315C89.1453 5.81193 88.2479 4.80602 87.0513 4.13541C85.9295 3.46481 84.6207 3.1295 83.125 3.1295C82.2276 3.1295 81.0684 3.31578 79.6474 3.68834ZM78.3013 19.8947V30.2891C78.3013 32.5245 78.5257 33.9029 78.9744 34.4245C79.6474 35.1696 80.6571 35.5422 82.0032 35.5422H83.4615V36.5481H68.093V35.5422H69.4391C70.9348 35.5422 72.0192 35.0579 72.6923 34.0892C73.0662 33.5676 73.2532 32.3009 73.2532 30.2891V7.37668C73.2532 5.14132 72.9915 3.7256 72.4679 3.1295C71.7949 2.38438 70.7853 2.01182 69.4391 2.01182H68.093V1.00591H81.218C84.359 1.00591 86.8643 1.34122 88.734 2.01182C90.6036 2.68243 92.1741 3.80011 93.4455 5.36486C94.6421 6.92961 95.2404 8.75515 95.2404 10.8415C95.2404 13.7475 94.3056 16.1318 92.4359 17.9946C90.4915 19.7829 87.7618 20.6771 84.2468 20.6771C83.4241 20.6771 82.4893 20.6026 81.4423 20.4535C80.4701 20.379 79.4231 20.1927 78.3013 19.8947ZM78.3013 3.68834V18.4417C79.1987 18.5907 80.0214 18.7025 80.7692 18.777C81.4423 18.926 82.0406 19.0005 82.5641 19.0005C84.4338 19.0005 86.0043 18.2927 87.2757 16.877C88.6218 15.4612 89.2949 13.6357 89.2949 11.4003C89.2949 9.83558 88.9957 8.41985 88.3974 7.15315C87.7244 5.81193 86.8269 4.80602 85.7051 4.13541C84.5086 3.46481 83.1998 3.1295 81.7789 3.1295C80.8814 3.1295 79.7222 3.31578 78.3013 3.68834ZM121.042 3.01773H111.282V16.9887H119.135C121.154 16.9887 122.5 16.6907 123.173 16.0946C124.145 15.275 124.669 13.8592 124.744 11.8474H125.753V24.2536H124.744C124.519 22.5399 124.257 21.4222 123.958 20.9006C123.659 20.3045 123.173 19.8202 122.5 19.4476C121.752 19.0751 120.63 18.8888 119.135 18.8888H111.282V30.6244C111.282 32.1892 111.357 33.1578 111.506 33.5304C111.656 33.8284 111.918 34.0892 112.292 34.3128C112.591 34.5363 113.264 34.6481 114.311 34.6481H120.256C122.276 34.6481 123.771 34.499 124.744 34.201C125.641 33.9029 126.501 33.3441 127.324 32.5245C128.446 31.4813 129.567 29.842 130.689 27.6067H131.699L128.67 36.5481H101.186V35.5422H102.42C103.243 35.5422 104.028 35.3559 104.776 34.9834C105.374 34.6853 105.748 34.2755 105.897 33.7539C106.122 33.1578 106.234 32.0029 106.234 30.2891V7.26491C106.234 4.95504 106.01 3.53932 105.561 3.01773C104.963 2.34713 103.916 2.01182 102.42 2.01182H101.186V1.00591H128.67L129.006 8.82967H127.997C127.623 6.96687 127.212 5.66291 126.763 4.91779C126.314 4.24718 125.678 3.7256 124.856 3.35304C124.108 3.1295 122.837 3.01773 121.042 3.01773ZM119.696 3.01773H109.936V16.9887H117.676C119.77 16.9887 121.154 16.6907 121.827 16.0946C122.724 15.275 123.21 13.8592 123.285 11.8474H124.295V24.2536H123.285C123.061 22.5399 122.837 21.4222 122.612 20.9006C122.313 20.3045 121.79 19.8202 121.042 19.4476C120.294 19.0751 119.172 18.8888 117.676 18.8888H109.936V30.6244C109.936 32.1892 109.973 33.1578 110.048 33.5304C110.198 33.8284 110.459 34.0892 110.833 34.3128C111.207 34.5363 111.88 34.6481 112.853 34.6481H118.91C120.929 34.6481 122.388 34.499 123.285 34.201C124.183 33.9029 125.043 33.3441 125.865 32.5245C126.987 31.4813 128.109 29.842 129.231 27.6067H130.24L127.212 36.5481H99.7276V35.5422H100.962C101.859 35.5422 102.682 35.3559 103.429 34.9834C103.953 34.6853 104.327 34.2755 104.551 33.7539C104.776 33.1578 104.888 32.0029 104.888 30.2891V7.26491C104.888 4.95504 104.663 3.53932 104.215 3.01773C103.542 2.34713 102.457 2.01182 100.962 2.01182H99.7276V1.00591H127.212L127.66 8.82967H126.538C126.239 6.96687 125.828 5.66291 125.304 4.91779C124.931 4.24718 124.295 3.7256 123.397 3.35304C122.65 3.1295 121.416 3.01773 119.696 3.01773ZM170.737 35.5422V36.5481H161.314L149.199 20.0065C148.301 20.0065 147.591 20.0065 147.067 20.0065C146.843 20.0065 146.581 20.0065 146.282 20.0065C146.058 20.0065 145.796 20.0065 145.497 20.0065V30.2891C145.497 32.5245 145.721 33.9029 146.17 34.4245C146.843 35.1696 147.853 35.5422 149.199 35.5422H150.545V36.5481H135.288V35.5422H136.635C138.13 35.5422 139.215 35.0579 139.888 34.0892C140.262 33.5676 140.449 32.3009 140.449 30.2891V7.37668C140.449 5.14132 140.187 3.7256 139.663 3.1295C138.99 2.38438 137.981 2.01182 136.635 2.01182H135.288V1.00591H148.301C152.115 1.00591 154.92 1.30396 156.715 1.90005C158.51 2.42164 160.005 3.42755 161.202 4.91779C162.473 6.40803 163.109 8.15906 163.109 10.1709C163.109 12.3317 162.399 14.2318 160.978 15.871C159.557 17.5103 157.35 18.628 154.359 19.2241L161.763 29.5067C163.408 31.8166 164.829 33.3441 166.026 34.0892C167.222 34.9088 168.793 35.3932 170.737 35.5422ZM145.497 3.57657V18.3299C145.796 18.3299 146.095 18.3299 146.394 18.3299C146.619 18.3299 146.806 18.3299 146.955 18.3299C150.321 18.3299 152.863 17.5848 154.583 16.0946C156.378 14.6789 157.276 12.8161 157.276 10.5062C157.276 8.27083 156.565 6.48254 155.144 5.14132C153.723 3.7256 151.891 3.01773 149.647 3.01773C148.6 3.01773 147.217 3.20401 145.497 3.57657ZM169.391 35.5422V36.5481H159.856L147.74 20.0065C146.843 20.0065 146.132 20.0065 145.609 20.0065C145.385 20.0065 145.123 20.0065 144.824 20.0065C144.599 20.0065 144.338 20.0065 144.038 20.0065V30.2891C144.038 32.5245 144.3 33.9029 144.824 34.4245C145.497 35.1696 146.469 35.5422 147.74 35.5422H149.199V36.5481H133.942V35.5422H135.288C136.784 35.5422 137.831 35.0579 138.43 34.0892C138.803 33.5676 138.99 32.3009 138.99 30.2891V7.37668C138.99 5.14132 138.766 3.7256 138.317 3.1295C137.644 2.38438 136.635 2.01182 135.288 2.01182H133.942V1.00591H146.843C150.657 1.00591 153.462 1.30396 155.256 1.90005C157.051 2.42164 158.584 3.42755 159.856 4.91779C161.127 6.40803 161.763 8.15906 161.763 10.1709C161.763 12.3317 161.015 14.2318 159.519 15.871C158.098 17.5103 155.892 18.628 152.901 19.2241L160.304 29.5067C161.95 31.8166 163.408 33.3441 164.679 34.0892C165.876 34.9088 167.447 35.3932 169.391 35.5422ZM144.038 3.57657V18.3299C144.412 18.3299 144.712 18.3299 144.936 18.3299C145.16 18.3299 145.347 18.3299 145.497 18.3299C148.937 18.3299 151.517 17.5848 153.237 16.0946C154.957 14.6789 155.817 12.8161 155.817 10.5062C155.817 8.27083 155.107 6.48254 153.686 5.14132C152.34 3.7256 150.507 3.01773 148.189 3.01773C147.142 3.01773 145.759 3.20401 144.038 3.57657ZM198.558 29.7303L196.426 24.7007H182.628L180.16 30.2891C179.562 31.6303 179.263 32.6735 179.263 33.4186C179.263 33.9402 179.525 34.3873 180.048 34.7598C180.572 35.2069 181.693 35.4677 183.413 35.5422V36.5481H172.196V35.5422C173.691 35.3187 174.663 34.9834 175.112 34.5363C176.01 33.7167 176.982 32.0401 178.029 29.5067L190.593 0.223536H191.49L203.942 29.7303C204.915 32.1147 205.812 33.6794 206.635 34.4245C207.457 35.0951 208.579 35.4677 210 35.5422V36.5481H195.978V35.5422C197.399 35.5422 198.371 35.3187 198.894 34.8716C199.343 34.499 199.567 34.0147 199.567 33.4186C199.567 32.6735 199.231 31.444 198.558 29.7303ZM183.413 22.6889H195.641L189.583 8.38259L183.413 22.6889ZM197.212 29.7303L195.08 24.5889H181.17L178.814 30.1773C178.216 31.5931 177.917 32.6362 177.917 33.3068C177.917 33.8284 178.178 34.3128 178.702 34.7598C179.225 35.1324 180.347 35.3932 182.067 35.5422V36.5481H170.849V35.5422C172.345 35.3187 173.28 34.9834 173.654 34.5363C174.551 33.7167 175.561 32.0029 176.683 29.395L189.247 0.223536H190.144L202.596 29.7303C203.568 32.1147 204.466 33.6794 205.288 34.4245C206.111 35.0951 207.233 35.4677 208.654 35.5422V36.5481H194.631V35.5422C196.052 35.4677 196.987 35.2442 197.436 34.8716C197.959 34.4245 198.221 33.9402 198.221 33.4186C198.221 32.599 197.885 31.3695 197.212 29.7303ZM182.067 22.6889H194.295L188.237 8.38259L182.067 22.6889ZM208.317 0.894144H237.372L237.821 9.27674H236.811C236.587 7.7865 236.325 6.74333 236.026 6.14724C235.427 5.10407 234.679 4.35895 233.782 3.91188C232.885 3.39029 231.688 3.1295 230.192 3.1295H225.256V30.2891C225.256 32.5245 225.481 33.9029 225.929 34.4245C226.603 35.1696 227.612 35.5422 228.958 35.5422H230.192V36.4363H215.16V35.5422H216.394C217.89 35.5422 218.974 35.0579 219.647 34.0892C220.021 33.5676 220.208 32.3009 220.208 30.2891V3.1295H215.946C214.225 3.1295 213.029 3.27853 212.356 3.57657C211.458 3.87462 210.673 4.50797 210 5.47663C209.327 6.37077 208.953 7.63748 208.878 9.27674H207.869L208.317 0.894144ZM206.859 0.894144H236.026L236.362 9.27674H235.353C235.203 7.7865 234.941 6.70608 234.567 6.03547C234.044 5.06681 233.333 4.32169 232.436 3.80011C231.538 3.35304 230.342 3.1295 228.846 3.1295H223.798V30.2891C223.798 32.45 224.06 33.7912 224.583 34.3128C225.256 35.0579 226.266 35.4304 227.612 35.4304H228.846V36.4363H213.702V35.4304H215.048C216.544 35.4304 217.591 34.9834 218.189 34.0892C218.563 33.4931 218.75 32.2264 218.75 30.2891V3.1295H214.487C212.842 3.1295 211.645 3.24127 210.897 3.4648C210 3.83736 209.252 4.47072 208.654 5.36486C207.981 6.33352 207.569 7.63748 207.42 9.27674H206.41L206.859 0.894144ZM259.359 0C263.996 0 267.997 1.75103 271.362 5.25309C274.728 8.75515 276.41 13.1514 276.41 18.4417C276.41 23.8066 274.728 28.2773 271.362 31.8539C267.922 35.4304 263.771 37.2187 258.91 37.2187C253.974 37.2187 249.861 35.4677 246.571 31.9656C243.205 28.4636 241.522 23.9556 241.522 18.4417C241.522 12.8533 243.467 8.27083 247.356 4.69425C250.646 1.56475 254.647 0 259.359 0ZM258.798 1.90005C255.657 1.90005 253.114 3.09225 251.17 5.47663C248.777 8.38259 247.58 12.667 247.58 18.3299C247.58 24.1419 248.814 28.6126 251.282 31.7421C253.227 34.1265 255.769 35.3187 258.91 35.3187C262.201 35.3187 264.931 34.0147 267.099 31.4068C269.343 28.7989 270.465 24.7007 270.465 19.1123C270.465 13.0023 269.268 8.45711 266.875 5.47663C264.931 3.09225 262.238 1.90005 258.798 1.90005ZM257.901 0C262.537 0 266.538 1.75103 269.904 5.25309C273.344 8.75515 275.064 13.1514 275.064 18.4417C275.064 23.8066 273.344 28.2773 269.904 31.8539C266.464 35.4304 262.313 37.2187 257.452 37.2187C252.591 37.2187 248.478 35.4677 245.112 31.9656C241.747 28.4636 240.064 23.9556 240.064 18.4417C240.064 12.8533 242.009 8.27083 245.897 4.69425C249.263 1.56475 253.264 0 257.901 0ZM257.452 1.90005C254.236 1.90005 251.656 3.09225 249.712 5.47663C247.318 8.38259 246.122 12.667 246.122 18.3299C246.122 24.1419 247.356 28.6126 249.824 31.7421C251.768 34.1265 254.311 35.3187 257.452 35.3187C260.817 35.3187 263.584 34.0147 265.753 31.4068C267.922 28.7989 269.006 24.7007 269.006 19.1123C269.006 13.0023 267.81 8.45711 265.417 5.47663C263.472 3.09225 260.817 1.90005 257.452 1.90005ZM316.346 35.4304V36.3246H306.811L294.808 19.7829C293.91 19.7829 293.162 19.7829 292.564 19.7829C292.34 19.7829 292.115 19.7829 291.891 19.7829C291.592 19.7829 291.33 19.7829 291.106 19.7829V30.0656C291.106 32.3009 291.33 33.6794 291.779 34.201C292.452 35.0206 293.462 35.4304 294.808 35.4304H296.154V36.3246H280.897V35.4304H282.244C283.739 35.4304 284.824 34.9461 285.497 33.9775C285.871 33.3814 286.058 32.0774 286.058 30.0656V7.15315C286.058 4.91779 285.796 3.53932 285.272 3.01773C284.599 2.1981 283.59 1.78829 282.244 1.78829H280.897V0.894144H293.91C297.65 0.894144 300.417 1.15494 302.212 1.67652C304.081 2.1981 305.614 3.20401 306.811 4.69425C308.082 6.18449 308.718 7.93552 308.718 9.94735C308.718 12.1827 308.007 14.0828 306.587 15.6475C305.166 17.2868 302.959 18.4417 299.968 19.1123L307.26 29.2832C308.98 31.5931 310.438 33.1578 311.635 33.9775C312.831 34.7226 314.402 35.2069 316.346 35.4304ZM291.106 3.35304V18.1064C291.405 18.1064 291.667 18.1064 291.891 18.1064C292.19 18.1064 292.415 18.1064 292.564 18.1064C295.93 18.1064 298.472 17.3985 300.192 15.9828C301.912 14.4926 302.772 12.5925 302.772 10.2826C302.772 8.1218 302.099 6.33352 300.753 4.91779C299.332 3.50206 297.463 2.7942 295.144 2.7942C294.172 2.7942 292.826 2.98048 291.106 3.35304ZM315 35.4304V36.3246H305.465L293.349 19.7829C292.452 19.7829 291.741 19.7829 291.218 19.7829C290.994 19.7829 290.732 19.7829 290.433 19.7829C290.208 19.7829 289.947 19.7829 289.647 19.7829V30.0656C289.647 32.3009 289.872 33.6794 290.321 34.201C290.994 35.0206 292.003 35.4304 293.349 35.4304H294.808V36.3246H279.439V35.4304H280.785C282.356 35.4304 283.44 34.9461 284.038 33.9775C284.412 33.3814 284.599 32.0774 284.599 30.0656V7.15315C284.599 4.91779 284.375 3.53932 283.926 3.01773C283.178 2.1981 282.131 1.78829 280.785 1.78829H279.439V0.894144H292.452C296.266 0.894144 299.071 1.15494 300.865 1.67652C302.66 2.1981 304.156 3.20401 305.353 4.69425C306.624 6.18449 307.26 7.93552 307.26 9.94735C307.26 12.1827 306.549 14.0828 305.128 15.6475C303.707 17.2868 301.501 18.4417 298.51 19.1123L305.913 29.2832C307.559 31.5931 308.98 33.1578 310.176 33.9775C311.448 34.7226 313.056 35.2069 315 35.4304ZM289.647 3.35304V18.1064C289.947 18.1064 290.246 18.1064 290.545 18.1064C290.769 18.1064 290.956 18.1064 291.106 18.1064C294.471 18.1064 297.014 17.3985 298.734 15.9828C300.529 14.4926 301.426 12.5925 301.426 10.2826C301.426 8.1218 300.716 6.33352 299.295 4.91779C297.874 3.50206 296.042 2.7942 293.798 2.7942C292.751 2.7942 291.368 2.98048 289.647 3.35304ZM332.724 35.4304H333.958V36.3246H318.702V35.4304H319.936C321.432 35.4304 322.516 34.9834 323.189 34.0892C323.563 33.5676 323.75 32.2264 323.75 30.0656V7.15315C323.75 5.36486 323.638 4.17267 323.413 3.57657C323.264 3.1295 322.927 2.75694 322.404 2.45889C321.581 2.01182 320.759 1.78829 319.936 1.78829H318.702V0.894144H333.958V1.78829H332.724C331.229 1.78829 330.144 2.23536 329.471 3.1295C329.022 3.65109 328.798 4.9923 328.798 7.15315V30.0656C328.798 31.8539 328.91 33.0461 329.135 33.6421C329.359 34.0892 329.733 34.4618 330.256 34.7598C331.004 35.2069 331.827 35.4304 332.724 35.4304ZM331.266 35.4304H332.5V36.3246H317.244V35.4304H318.59C320.011 35.4304 321.058 34.9834 321.731 34.0892C322.18 33.5676 322.404 32.2264 322.404 30.0656V7.15315C322.404 5.36486 322.292 4.17267 322.067 3.57657C321.843 3.1295 321.469 2.75694 320.946 2.45889C320.198 2.01182 319.412 1.78829 318.59 1.78829H317.244V0.894144H332.5V1.78829H331.266C329.77 1.78829 328.723 2.23536 328.125 3.1295C327.676 3.65109 327.452 4.9923 327.452 7.15315V30.0656C327.452 31.8539 327.564 33.0461 327.788 33.6421C327.938 34.0892 328.312 34.4618 328.91 34.7598C329.658 35.2069 330.443 35.4304 331.266 35.4304ZM27.5962 63.5959V62.7018H38.5897V63.5959C37.094 63.745 35.9722 64.1175 35.2244 64.7136C34.4765 65.2352 33.3173 66.8745 31.7468 69.6314C30.2511 72.3884 28.531 74.9963 26.5865 77.4552C28.1571 79.2435 29.5406 80.5102 30.7372 81.2553C32.0085 82.0004 33.2425 82.373 34.4391 82.373C35.7105 82.373 36.7575 82.0377 37.5801 81.367C38.4028 80.6964 39.0011 79.7278 39.375 78.4611L40.2724 79.1317C39.6742 81.5906 38.6645 83.4161 37.2436 84.6083C35.7479 85.8005 34.0652 86.3966 32.1955 86.3966C30.7746 86.3966 29.3162 85.9868 27.8205 85.1672C26.3248 84.422 24.7169 83.1181 22.9968 81.2553C20.7532 83.1926 18.7714 84.5338 17.0513 85.2789C15.3312 86.024 13.4615 86.3966 11.4423 86.3966C8.60043 86.3966 6.31944 85.6142 4.59936 84.0495C2.87927 82.4847 2.01923 80.6592 2.01923 78.5728C2.01923 76.412 2.80449 74.2884 4.375 72.2021C5.87073 70.1157 8.71261 67.9549 12.9006 65.7195C12.078 63.8567 11.5171 62.3665 11.2179 61.2488C10.9188 60.0566 10.7692 58.9389 10.7692 57.8958C10.7692 54.9153 11.891 52.6427 14.1346 51.0779C15.8547 49.8112 17.7991 49.1779 19.9679 49.1779C22.062 49.1779 23.7447 49.8112 25.016 51.0779C26.3622 52.2701 27.0353 53.7604 27.0353 55.5487C27.0353 57.4115 26.3996 59.0507 25.1282 60.4664C23.8568 61.8822 21.6132 63.4097 18.3974 65.0489C20.641 68.9981 22.9594 72.6119 25.3526 75.8904C28.4188 72.2393 29.9519 69.1471 29.9519 66.6137C29.9519 65.7941 29.6902 65.0862 29.1667 64.4901C28.7927 64.043 28.2692 63.745 27.5962 63.5959ZM17.5 63.3724C19.6688 62.3292 21.2767 61.1371 22.3237 59.7958C23.4455 58.5291 24.0064 57.0762 24.0064 55.4369C24.0064 54.1702 23.5951 53.127 22.7724 52.3074C22.0246 51.4878 21.0897 51.0779 19.9679 51.0779C18.3974 51.0779 17.2382 51.6368 16.4904 52.7545C15.6677 53.7976 15.2564 54.8035 15.2564 55.7722C15.2564 56.6663 15.406 57.635 15.7051 58.6782C16.0043 59.7213 16.6026 61.2861 17.5 63.3724ZM21.5385 79.6905C19.2201 76.561 17.6122 74.2884 16.7147 72.8727C15.8173 71.3824 14.8451 69.5569 13.7981 67.3961C11.7041 68.6628 10.1335 70.004 9.08654 71.4197C8.03953 72.8354 7.51603 74.4002 7.51603 76.114C7.51603 77.9768 8.11432 79.616 9.3109 81.0317C10.5075 82.4475 12.1154 83.1553 14.1346 83.1553C15.2564 83.1553 16.3408 82.9318 17.3878 82.4847C18.4348 82.1122 19.8184 81.1808 21.5385 79.6905ZM26.1378 63.5959V62.7018H37.1314V63.5959C35.6357 63.745 34.5139 64.1175 33.766 64.7136C33.0182 65.2352 31.8964 66.8745 30.4006 69.6314C28.8301 72.3884 27.0727 74.9963 25.1282 77.4552C26.6987 79.2435 28.1197 80.5102 29.391 81.2553C30.5876 82.0004 31.8216 82.373 33.0929 82.373C34.2895 82.373 35.2991 82.0377 36.1218 81.367C36.9445 80.6964 37.5427 79.7278 37.9167 78.4611L38.9263 79.1317C38.2532 81.5906 37.2062 83.4161 35.7853 84.6083C34.3643 85.8005 32.6816 86.3966 30.7372 86.3966C29.3162 86.3966 27.8579 85.9868 26.3622 85.1672C24.8665 84.422 23.2585 83.1181 21.5385 81.2553C19.3697 83.1926 17.3878 84.5338 15.5929 85.2789C13.8729 86.024 12.0406 86.3966 10.0962 86.3966C7.17949 86.3966 4.86111 85.6142 3.14103 84.0495C1.49573 82.4847 0.673077 80.6592 0.673077 78.5728C0.673077 76.412 1.42094 74.2884 2.91667 72.2021C4.41239 70.1157 7.29167 67.9549 11.5545 65.7195C10.7318 63.8567 10.1709 62.3665 9.87179 61.2488C9.57265 60.0566 9.42308 58.9389 9.42308 57.8958C9.42308 54.9153 10.5075 52.6427 12.6763 51.0779C14.3964 49.8112 16.3408 49.1779 18.5096 49.1779C20.6036 49.1779 22.3237 49.8112 23.6699 51.0779C24.9412 52.2701 25.5769 53.7604 25.5769 55.5487C25.5769 57.4115 24.9412 59.0507 23.6699 60.4664C22.3985 61.8822 20.1549 63.4097 16.9391 65.0489C19.1827 68.9981 21.5011 72.6119 23.8942 75.8904C27.0353 72.2393 28.6058 69.1471 28.6058 66.6137C28.6058 65.7941 28.344 65.0862 27.8205 64.4901C27.3718 64.043 26.8109 63.745 26.1378 63.5959ZM16.0417 63.3724C18.2105 62.3292 19.8558 61.1371 20.9776 59.7958C22.0246 58.5291 22.5481 57.0762 22.5481 55.4369C22.5481 54.1702 22.1741 53.127 21.4263 52.3074C20.6036 51.4878 19.6314 51.0779 18.5096 51.0779C17.0139 51.0779 15.8547 51.6368 15.0321 52.7545C14.2842 53.7976 13.9103 54.8035 13.9103 55.7722C13.9103 56.6663 14.0598 57.635 14.359 58.6782C14.6581 59.7213 15.219 61.2861 16.0417 63.3724ZM20.1923 79.6905C17.8739 76.561 16.266 74.2884 15.3686 72.8727C14.4712 71.3824 13.4989 69.5569 12.4519 67.3961C10.2831 68.6628 8.67521 70.004 7.62821 71.4197C6.5812 72.8354 6.05769 74.4002 6.05769 76.114C6.05769 77.9768 6.65598 79.616 7.85257 81.0317C9.04915 82.4475 10.6944 83.1553 12.7885 83.1553C13.9103 83.1553 14.9573 82.9318 15.9295 82.4847C16.9765 82.1122 18.3974 81.1808 20.1923 79.6905ZM69.3269 68.9608V79.2435C69.3269 81.4788 69.5887 82.8573 70.1122 83.3789C70.7853 84.1985 71.7949 84.6083 73.141 84.6083H74.4872V85.5025H59.2308V84.6083H60.5769C62.0727 84.6083 63.1571 84.124 63.8301 83.1553C64.1293 82.5592 64.2789 81.2553 64.2789 79.2435V56.331C64.2789 54.0957 64.0545 52.7172 63.6058 52.1956C62.9327 51.376 61.9231 50.9662 60.5769 50.9662H59.2308V50.072H72.2436C75.4594 50.072 78.0021 50.3701 79.8718 50.9662C81.6667 51.6368 83.1998 52.7545 84.4712 54.3192C85.7425 55.884 86.3782 57.7095 86.3782 59.7958C86.3782 62.7018 85.406 65.0862 83.4615 66.949C81.5919 68.7373 78.8996 69.6314 75.3846 69.6314C74.4872 69.6314 73.5524 69.5569 72.5801 69.4079C71.6079 69.3334 70.5235 69.1843 69.3269 68.9608ZM69.3269 52.6427V67.3961C70.2991 67.6196 71.1218 67.7686 71.7949 67.8431C72.5427 67.9176 73.1784 67.9549 73.7019 67.9549C75.4968 67.9549 77.0673 67.247 78.4135 65.8313C79.7596 64.4156 80.4327 62.59 80.4327 60.3547C80.4327 58.7899 80.0962 57.3742 79.4231 56.1075C78.8248 54.7663 77.9274 53.7604 76.7308 53.0898C75.609 52.4937 74.3002 52.1956 72.8045 52.1956C71.9071 52.1956 70.7479 52.3447 69.3269 52.6427ZM67.9808 68.9608V79.2435C67.9808 81.4788 68.2051 82.8573 68.6539 83.3789C69.3269 84.1985 70.3365 84.6083 71.6827 84.6083H73.0288V85.5025H57.7724V84.6083H59.1186C60.6143 84.6083 61.6987 84.124 62.3718 83.1553C62.7457 82.5592 62.9327 81.2553 62.9327 79.2435V56.331C62.9327 54.0957 62.6709 52.7172 62.1474 52.1956C61.4744 51.376 60.4647 50.9662 59.1186 50.9662H57.7724V50.072H70.8974C74.0385 50.072 76.5438 50.3701 78.4135 50.9662C80.2831 51.6368 81.8162 52.7545 83.0128 54.3192C84.2842 55.884 84.9199 57.7095 84.9199 59.7958C84.9199 62.7018 83.9851 65.0862 82.1154 66.949C80.171 68.7373 77.4412 69.6314 73.9263 69.6314C73.1036 69.6314 72.1688 69.5569 71.1218 69.4079C70.1496 69.3334 69.1026 69.1843 67.9808 68.9608ZM67.9808 52.6427V67.3961C68.8782 67.6196 69.7009 67.7686 70.4487 67.8431C71.1218 67.9176 71.7201 67.9549 72.2436 67.9549C74.0385 67.9549 75.609 67.247 76.9551 65.8313C78.3013 64.4156 78.9744 62.59 78.9744 60.3547C78.9744 58.7899 78.6378 57.3742 77.9647 56.1075C77.3665 54.7663 76.5064 53.7604 75.3846 53.0898C74.188 52.4937 72.8419 52.1956 71.3462 52.1956C70.4487 52.1956 69.3269 52.3447 67.9808 52.6427ZM111.619 78.7964L109.375 73.6551H95.5769L93.2212 79.2435C92.6229 80.6592 92.3237 81.7023 92.3237 82.373C92.3237 82.8945 92.5855 83.3789 93.109 83.8259C93.6325 84.1985 94.7543 84.4593 96.4744 84.6083V85.5025H85.1442V84.6083C86.64 84.3103 87.6122 83.975 88.0609 83.6024C88.9583 82.7083 89.968 80.9945 91.0898 78.4611L103.654 49.1779H104.551L116.891 78.7964C117.938 81.1808 118.873 82.7083 119.696 83.3789C120.518 84.124 121.64 84.5338 123.061 84.6083V85.5025H109.038V84.6083C110.459 84.5338 111.394 84.273 111.843 83.8259C112.366 83.4534 112.628 82.969 112.628 82.373C112.628 81.6278 112.292 80.4356 111.619 78.7964ZM96.4744 71.755H108.702L102.644 57.3369L96.4744 71.755ZM110.16 78.7964L108.029 73.7668H94.2308L91.7628 79.3552C91.1645 80.6964 90.8654 81.7023 90.8654 82.373C90.8654 82.969 91.1271 83.4534 91.6507 83.8259C92.1742 84.273 93.296 84.5338 95.016 84.6083V85.6142H83.7981V84.6083C85.2938 84.3848 86.266 84.0495 86.7148 83.6024C87.6122 82.7828 88.5844 81.069 89.6314 78.4611L102.196 49.2897H103.093L115.545 78.7964C116.517 81.1808 117.415 82.7455 118.237 83.4906C119.06 84.1612 120.219 84.5338 121.715 84.6083V85.6142H107.58V84.6083C109.001 84.5338 109.973 84.3103 110.497 83.9377C111.02 83.5651 111.282 83.0808 111.282 82.4847C111.282 81.6651 110.908 80.4356 110.16 78.7964ZM95.016 71.755H107.244L101.298 57.4487L95.016 71.755ZM161.426 84.6083V85.5025H151.891L139.888 68.9608C138.99 68.9608 138.243 68.9608 137.644 68.9608C137.42 68.9608 137.196 68.9608 136.971 68.9608C136.672 68.9608 136.41 68.9608 136.186 68.9608V79.2435C136.186 81.4788 136.41 82.8573 136.859 83.3789C137.532 84.1985 138.542 84.6083 139.888 84.6083H141.234V85.5025H125.978V84.6083H127.324C128.819 84.6083 129.904 84.124 130.577 83.1553C130.951 82.5592 131.138 81.2553 131.138 79.2435V56.331C131.138 54.0957 130.876 52.7172 130.353 52.1956C129.679 51.376 128.67 50.9662 127.324 50.9662H125.978V50.072H138.99C142.805 50.072 145.572 50.3328 147.292 50.8544C149.161 51.376 150.694 52.3819 151.891 53.8721C153.162 55.3624 153.798 57.1134 153.798 59.1252C153.798 61.3606 153.088 63.2607 151.667 64.8254C150.246 66.4647 148.04 67.6196 145.048 68.2902L152.34 78.4611C154.06 80.771 155.518 82.3357 156.715 83.1553C157.911 83.9004 159.482 84.3848 161.426 84.6083ZM136.186 52.5309V67.2843C136.485 67.2843 136.747 67.2843 136.971 67.2843C137.27 67.2843 137.495 67.2843 137.644 67.2843C141.01 67.2843 143.552 66.5764 145.272 65.1607C146.993 63.6705 147.853 61.8077 147.853 59.5723C147.853 57.3369 147.18 55.5114 145.833 54.0957C144.412 52.68 142.543 51.9721 140.224 51.9721C139.252 51.9721 137.906 52.1584 136.186 52.5309ZM160.08 84.6083V85.5025H150.545L138.43 68.9608C137.532 68.9608 136.822 68.9608 136.298 68.9608C136.074 68.9608 135.812 68.9608 135.513 68.9608C135.288 68.9608 135.027 68.9608 134.728 68.9608V79.2435C134.728 81.4788 134.989 82.8573 135.513 83.3789C136.111 84.1985 137.083 84.6083 138.43 84.6083H139.888V85.5025H124.631V84.6083H125.865C127.436 84.6083 128.52 84.124 129.119 83.1553C129.493 82.5592 129.679 81.2553 129.679 79.2435V56.331C129.679 54.0957 129.455 52.7172 129.006 52.1956C128.333 51.376 127.286 50.9662 125.865 50.9662H124.631V50.072H137.532C141.346 50.072 144.151 50.3328 145.946 50.8544C147.74 51.376 149.274 52.3819 150.545 53.8721C151.741 55.3624 152.34 57.1134 152.34 59.1252C152.34 61.3606 151.629 63.2607 150.208 64.8254C148.787 66.4647 146.581 67.6196 143.59 68.2902L150.994 78.4611C152.639 80.771 154.06 82.3357 155.256 83.1553C156.528 83.9004 158.136 84.3848 160.08 84.6083ZM134.728 52.5309V67.2843C135.027 67.2843 135.326 67.2843 135.625 67.2843C135.849 67.2843 136.036 67.2843 136.186 67.2843C139.626 67.2843 142.206 66.5764 143.926 65.1607C145.646 63.6705 146.506 61.8077 146.506 59.5723C146.506 57.3369 145.796 55.5114 144.375 54.0957C142.954 52.68 141.122 51.9721 138.878 51.9721C137.831 51.9721 136.448 52.1584 134.728 52.5309ZM161.314 50.072H190.369L190.817 58.3429H189.808C189.583 56.9271 189.322 55.884 189.022 55.2134C188.424 54.1702 187.676 53.4251 186.779 52.978C185.881 52.5309 184.685 52.3074 183.189 52.3074H178.253V79.3552C178.253 81.5906 178.478 82.9691 178.926 83.4906C179.599 84.2358 180.609 84.6083 181.955 84.6083H183.189V85.5025H168.157V84.6083H169.391C170.887 84.6083 171.971 84.1612 172.644 83.2671C173.018 82.671 173.205 81.3671 173.205 79.3552V52.3074H168.942C167.222 52.3074 166.026 52.4192 165.353 52.6427C164.455 52.9407 163.67 53.5741 162.997 54.5427C162.324 55.5114 161.95 56.7781 161.875 58.3429H160.865L161.314 50.072ZM159.856 50.072H189.022L189.359 58.4546H188.349C188.2 56.9644 187.938 55.9212 187.564 55.3251C187.041 54.282 186.33 53.5368 185.433 53.0898C184.535 52.5682 183.339 52.3074 181.843 52.3074H176.795V79.467C176.795 81.6278 177.057 82.9691 177.58 83.4906C178.253 84.2358 179.263 84.6083 180.609 84.6083H181.843V85.6142H166.699V84.6083H168.045C169.541 84.6083 170.588 84.1612 171.186 83.2671C171.56 82.7455 171.747 81.4788 171.747 79.467V52.3074H167.484C165.839 52.3074 164.642 52.4192 163.894 52.6427C162.997 53.0153 162.249 53.6859 161.651 54.6545C160.978 55.5487 160.566 56.8154 160.417 58.4546H159.407L159.856 50.072ZM192.949 50.9662V50.072H202.596L224.359 76.6728V56.2193C224.359 54.0584 224.135 52.68 223.686 52.0839C223.013 51.3387 221.966 50.9662 220.545 50.9662H219.311V50.072H231.763V50.9662H230.529C228.958 50.9662 227.874 51.4505 227.276 52.4192C226.902 52.9407 226.715 54.2074 226.715 56.2193V86.1731H225.705L202.26 57.5605V79.3552C202.26 81.5906 202.484 82.9691 202.933 83.4906C203.606 84.2358 204.653 84.6083 206.074 84.6083H207.308V85.6142H194.856V84.6083H196.09C197.66 84.6083 198.745 84.1612 199.343 83.2671C199.717 82.671 199.904 81.3671 199.904 79.3552V54.6545C198.857 53.4623 198.072 52.6799 197.548 52.3074C197.025 51.9348 196.239 51.5995 195.192 51.3015C194.669 51.0779 193.921 50.9662 192.949 50.9662ZM191.49 50.9662V50.072H201.138L222.901 76.6728V56.2193C222.901 54.0584 222.676 52.68 222.228 52.0839C221.554 51.3387 220.507 50.9662 219.087 50.9662H217.853V50.072H230.304V50.9662H229.071C227.575 50.9662 226.49 51.4505 225.817 52.4192C225.443 52.9407 225.256 54.2074 225.256 56.2193V86.1731H224.359L200.801 57.5605V79.3552C200.801 81.5906 201.026 82.9691 201.474 83.4906C202.147 84.2358 203.194 84.6083 204.615 84.6083H205.849V85.6142H193.51V84.6083H194.744C196.239 84.6083 197.286 84.1612 197.885 83.2671C198.333 82.671 198.558 81.3671 198.558 79.3552V54.6545C197.511 53.4623 196.688 52.6799 196.09 52.3074C195.566 51.9348 194.818 51.5995 193.846 51.3015C193.323 51.0779 192.537 50.9662 191.49 50.9662ZM254.984 51.9721H245.224V66.0548H253.077C255.096 66.0548 256.442 65.7195 257.115 65.0489C258.013 64.3038 258.536 62.9253 258.686 60.9135H259.583V73.208H258.686C258.387 71.4942 258.125 70.3765 257.901 69.855C257.602 69.2589 257.078 68.7745 256.33 68.402C255.657 68.1039 254.573 67.9549 253.077 67.9549H245.224V79.6905C245.224 81.2553 245.299 82.1867 245.449 82.4847C245.598 82.8573 245.823 83.1553 246.122 83.3789C246.496 83.5279 247.169 83.6024 248.141 83.6024H254.199C256.218 83.6024 257.676 83.4534 258.574 83.1553C259.471 82.9318 260.369 82.4102 261.266 81.5906C262.313 80.4729 263.397 78.8336 264.519 76.6728H265.641L262.5 85.6142H235.016V84.6083H236.362C237.185 84.6083 237.97 84.3848 238.718 83.9377C239.241 83.7142 239.615 83.3044 239.84 82.7083C240.064 82.1867 240.176 81.069 240.176 79.3552V56.2193C240.176 53.9839 239.952 52.6054 239.503 52.0839C238.83 51.3387 237.783 50.9662 236.362 50.9662H235.016V50.072H262.5L262.949 57.784H261.939C261.565 55.9212 261.154 54.6545 260.705 53.9839C260.256 53.3133 259.583 52.7917 258.686 52.4192C258.013 52.1211 256.779 51.9721 254.984 51.9721ZM253.526 51.9721H243.766V66.0548H251.619C253.638 66.0548 254.984 65.7195 255.657 65.0489C256.629 64.3038 257.153 62.9253 257.228 60.9135H258.237V73.208H257.228C257.003 71.4942 256.741 70.3765 256.442 69.855C256.143 69.2589 255.657 68.7745 254.984 68.402C254.236 68.1039 253.114 67.9549 251.619 67.9549H243.766V79.6905C243.766 81.2553 243.841 82.1867 243.99 82.4847C244.14 82.8573 244.402 83.1553 244.776 83.3789C245.075 83.5279 245.71 83.6024 246.683 83.6024H252.74C254.76 83.6024 256.218 83.4534 257.115 83.1553C258.088 82.9318 258.985 82.4102 259.808 81.5906C260.855 80.4729 261.977 78.8336 263.173 76.6728H264.183L261.154 85.6142H233.67V84.6083H234.904C235.727 84.6083 236.512 84.3848 237.26 83.9377C237.858 83.7142 238.232 83.3044 238.381 82.7083C238.606 82.1867 238.718 81.069 238.718 79.3552V56.2193C238.718 53.9839 238.494 52.6054 238.045 52.0839C237.447 51.3387 236.4 50.9662 234.904 50.9662H233.67V50.072H261.154L261.49 57.784H260.481C260.107 55.9212 259.696 54.6545 259.247 53.9839C258.798 53.3133 258.125 52.7917 257.228 52.4192C256.555 52.1211 255.321 51.9721 253.526 51.9721ZM304.68 84.6083V85.6142H295.144L283.141 68.9608C282.244 68.9608 281.496 68.9608 280.897 68.9608C280.673 68.9608 280.449 68.9608 280.224 68.9608C279.925 68.9608 279.626 68.9608 279.327 68.9608V79.2435C279.327 81.4788 279.589 82.8945 280.112 83.4906C280.785 84.2358 281.795 84.6083 283.141 84.6083H284.487V85.6142H269.231V84.6083H270.577C272.073 84.6083 273.157 84.124 273.83 83.1553C274.204 82.5592 274.391 81.2553 274.391 79.2435V56.331C274.391 54.0957 274.129 52.7172 273.606 52.1956C272.933 51.376 271.923 50.9662 270.577 50.9662H269.231V50.072H282.244C285.983 50.072 288.75 50.3328 290.545 50.8544C292.34 51.376 293.873 52.3819 295.144 53.8721C296.416 55.3624 297.051 57.1507 297.051 59.237C297.051 61.3978 296.341 63.2607 294.92 64.8254C293.499 66.4647 291.293 67.6196 288.301 68.2902L295.593 78.4611C297.313 80.771 298.771 82.3357 299.968 83.1553C301.165 83.9004 302.735 84.3848 304.68 84.6083ZM279.327 52.5309V67.2843C279.701 67.2843 280 67.2843 280.224 67.2843C280.449 67.2843 280.636 67.2843 280.785 67.2843C284.225 67.2843 286.806 66.5764 288.526 65.1607C290.246 63.6705 291.106 61.8077 291.106 59.5723C291.106 57.3369 290.395 55.5114 288.974 54.0957C287.628 52.7545 285.796 52.0839 283.478 52.0839C282.505 52.0839 281.122 52.2329 279.327 52.5309ZM303.221 84.6083V85.6142H293.798L281.683 68.9608C280.785 68.9608 280.075 68.9608 279.551 68.9608C279.252 68.9608 278.99 68.9608 278.766 68.9608C278.467 68.9608 278.205 68.9608 277.981 68.9608V79.2435C277.981 81.4788 278.205 82.8945 278.654 83.4906C279.327 84.2358 280.337 84.6083 281.683 84.6083H283.029V85.6142H267.772V84.6083H269.119C270.614 84.6083 271.699 84.124 272.372 83.1553C272.746 82.5592 272.933 81.2553 272.933 79.2435V56.331C272.933 54.0957 272.671 52.7172 272.147 52.1956C271.474 51.376 270.465 50.9662 269.119 50.9662H267.772V50.072H280.785C284.599 50.072 287.404 50.3328 289.199 50.8544C290.994 51.376 292.489 52.3819 293.686 53.8721C294.957 55.3624 295.593 57.1507 295.593 59.237C295.593 61.3978 294.882 63.2607 293.462 64.8254C292.041 66.4647 289.834 67.6196 286.843 68.2902L294.247 78.4611C295.892 80.771 297.313 82.3357 298.51 83.1553C299.706 83.9004 301.277 84.3848 303.221 84.6083ZM277.981 52.5309V67.2843C278.28 67.2843 278.542 67.2843 278.766 67.2843C279.065 67.2843 279.29 67.2843 279.439 67.2843C282.805 67.2843 285.347 66.5764 287.067 65.1607C288.787 63.6705 289.647 61.8077 289.647 59.5723C289.647 57.3369 288.974 55.5114 287.628 54.0957C286.207 52.7545 284.338 52.0839 282.019 52.0839C281.047 52.0839 279.701 52.2329 277.981 52.5309ZM329.359 49.1779H330.369V61.4724H329.359C329.06 59.1625 328.499 57.2997 327.676 55.884C326.854 54.4682 325.694 53.3506 324.199 52.5309C322.703 51.7113 321.132 51.3015 319.487 51.3015C317.692 51.3015 316.197 51.8603 315 52.978C313.803 54.0957 313.205 55.3624 313.205 56.7781C313.205 57.8213 313.579 58.7899 314.327 59.6841C315.449 61.0253 318.029 62.7763 322.067 64.9372C325.433 66.7254 327.714 68.1039 328.91 69.0726C330.107 70.0412 331.042 71.1589 331.715 72.4256C332.388 73.6923 332.724 75.0335 332.724 76.4492C332.724 79.2062 331.677 81.5533 329.583 83.4906C327.489 85.4279 324.797 86.3966 321.506 86.3966C320.459 86.3966 319.487 86.3221 318.59 86.1731C318.066 86.0986 316.944 85.7632 315.224 85.1672C313.504 84.6456 312.42 84.3848 311.971 84.3848C311.522 84.3848 311.149 84.4965 310.849 84.7201C310.625 85.0181 310.475 85.577 310.401 86.3966H309.391V74.2139H310.401C310.849 76.7473 311.448 78.6474 312.196 79.9141C312.943 81.1808 314.103 82.2239 315.673 83.0436C317.318 83.9377 319.076 84.3848 320.946 84.3848C323.114 84.3848 324.834 83.7887 326.106 82.5965C327.377 81.4788 328.013 80.1003 328.013 78.4611C328.013 77.6414 327.788 76.7846 327.34 75.8904C326.816 74.9963 326.068 74.1766 325.096 73.4315C324.423 72.9099 322.553 71.7923 319.487 70.0785C316.421 68.3647 314.252 66.9862 312.981 65.9431C311.709 64.9744 310.737 63.8567 310.064 62.59C309.391 61.3978 309.055 60.0566 309.055 58.5664C309.055 56.033 310.027 53.8349 311.971 51.9721C313.916 50.1093 316.421 49.1779 319.487 49.1779C321.357 49.1779 323.376 49.6622 325.545 50.6309C326.517 51.0779 327.19 51.3015 327.564 51.3015C328.013 51.3015 328.387 51.1525 328.686 50.8544C328.985 50.5564 329.209 49.9975 329.359 49.1779ZM328.013 49.1779H328.91V61.4724H328.013C327.639 59.1625 327.041 57.2997 326.218 55.884C325.47 54.4682 324.311 53.3506 322.74 52.5309C321.245 51.7113 319.712 51.3015 318.141 51.3015C316.271 51.3015 314.738 51.8603 313.542 52.978C312.345 54.0957 311.747 55.3624 311.747 56.7781C311.747 57.8213 312.121 58.7899 312.869 59.6841C313.99 61.0253 316.608 62.7763 320.721 64.9372C324.012 66.7254 326.255 68.1039 327.452 69.0726C328.723 70.0412 329.658 71.1589 330.256 72.4256C330.929 73.6923 331.266 75.0335 331.266 76.4492C331.266 79.2062 330.219 81.5533 328.125 83.4906C326.031 85.4279 323.339 86.3966 320.048 86.3966C319.001 86.3966 318.029 86.3221 317.131 86.1731C316.608 86.0986 315.486 85.7632 313.766 85.1672C312.046 84.6456 310.962 84.3848 310.513 84.3848C310.064 84.3848 309.728 84.4965 309.503 84.7201C309.204 85.0181 309.017 85.577 308.942 86.3966H307.933V74.2139H308.942C309.391 76.7473 309.989 78.6474 310.737 79.9141C311.56 81.1808 312.756 82.2239 314.327 83.0436C315.897 83.9377 317.618 84.3848 319.487 84.3848C321.731 84.3848 323.451 83.7887 324.647 82.5965C325.994 81.4788 326.667 80.1003 326.667 78.4611C326.667 77.6414 326.405 76.7846 325.881 75.8904C325.433 74.9963 324.685 74.1766 323.638 73.4315C322.965 72.9099 321.095 71.7923 318.029 70.0785C314.963 68.3647 312.794 66.9862 311.522 65.9431C310.251 64.9744 309.279 63.8567 308.606 62.59C307.933 61.3978 307.596 60.0566 307.596 58.5664C307.596 56.033 308.568 53.8349 310.513 51.9721C312.532 50.1093 315.037 49.1779 318.029 49.1779C319.899 49.1779 321.918 49.6622 324.087 50.6309C325.059 51.0779 325.732 51.3015 326.106 51.3015C326.555 51.3015 326.928 51.1525 327.228 50.8544C327.527 50.5564 327.788 49.9975 328.013 49.1779Z" fill="#E7E7E7"/>
</svg>
