<svg version="1.2" xmlns="http://www.w3.org/2000/svg" viewBox="0 0 312 93" width="312" height="93">
	<title>New Project</title>
	<style>
		.s0 { fill: #ffffff } 
	</style>
	<path id="IMPERATORI &amp; PARTNERS" class="s0" aria-label="IMPERATORI
&amp; PARTNERS"  d="m21.3 39.1h1.1v0.9h-13.6v-0.9h1.2q1.9 0 2.8-1.1 0.6-0.8 0.6-3.6v-20.6q0-2.4-0.3-3.1-0.3-0.6-1-1.1-1-0.5-2.1-0.5h-1.2v-0.9h13.6v0.9h-1.1q-1.9 0-2.8 1.1-0.6 0.8-0.6 3.6v20.6q0 2.4 0.3 3.2 0.2 0.5 1 1 1 0.5 2.1 0.5zm-1.3 0h1.2v0.9h-13.6v-0.9h1.1q2 0 2.8-1.1 0.6-0.8 0.6-3.6v-20.6q0-2.4-0.3-3.1-0.2-0.6-1-1.1-1-0.5-2.1-0.5h-1.1v-0.9h13.6v0.9h-1.2q-1.9 0-2.8 1.1-0.6 0.8-0.6 3.6v20.6q0 2.4 0.3 3.2 0.2 0.5 1 1 1 0.5 2.1 0.5zm25.3 0.9h-0.7l-12.3-26.7v21.2q0 2.9 0.6 3.6 0.9 1 2.7 1h1.2v0.9h-11.1v-0.9h1.1q2.1 0 2.9-1.2 0.5-0.7 0.5-3.4v-20.8q0-2.1-0.5-3-0.3-0.7-1.2-1.1-0.8-0.5-2.8-0.5v-0.9h9l11.5 24.9 11.4-24.9h9v0.9h-1.1q-2.1 0-2.9 1.2-0.5 0.8-0.5 3.4v20.8q0 2.9 0.6 3.6 0.9 1 2.8 1h1.1v0.9h-13.5v-0.9h1.1q2 0 2.9-1.2 0.5-0.7 0.5-3.4v-21.2zm-1.3 0h-0.8l-12.2-26.8v21.3q0 2.9 0.6 3.6 0.9 1 2.7 1h1.2v0.9h-11.1v-0.9h1.1q2 0 2.9-1.2 0.5-0.8 0.5-3.5v-20.7q0-2.1-0.5-3.1-0.3-0.6-1.2-1.1-0.9-0.5-2.8-0.5v-0.8h9l11.5 24.8 11.4-24.8h9v0.8h-1.1q-2.1 0-2.9 1.3-0.5 0.7-0.5 3.4v20.7q0 3 0.6 3.7 0.9 1 2.8 1h1.1v0.9h-13.5v-0.9h1.1q2 0 2.9-1.2 0.5-0.8 0.5-3.5v-21.2zm34.6-14.9v9.3q0 3 0.7 3.7 0.9 1 2.7 1h1.2v0.9h-13.6v-0.9h1.2q2 0 2.9-1.3 0.4-0.7 0.4-3.4v-20.5q0-3-0.6-3.8-0.9-1-2.7-1h-1.2v-0.9h11.6q4.3 0 6.8 0.9 2.4 0.9 4.1 3 1.7 2.1 1.7 4.9 0 3.9-2.6 6.4-2.5 2.4-7.2 2.4-1.2 0-2.5-0.2-1.3-0.1-2.9-0.5zm0-14.5v13.2q1.3 0.2 2.3 0.3 0.9 0.2 1.6 0.2 2.4 0 4.2-1.9 1.8-1.9 1.8-4.9 0-2.1-0.9-3.8-0.8-1.8-2.4-2.7-1.5-0.9-3.5-0.9-1.2 0-3.1 0.5zm-1.2 14.5v9.3q0 3 0.6 3.7 0.9 1 2.7 1h1.3v0.9h-13.7v-0.9h1.2q2 0 2.9-1.3 0.5-0.7 0.5-3.4v-20.5q0-3-0.7-3.8-0.9-1-2.7-1h-1.2v-0.9h11.7q4.2 0 6.7 0.9 2.5 0.9 4.2 3 1.6 2.1 1.6 4.9 0 3.9-2.5 6.4-2.6 2.4-7.3 2.4-1.1 0-2.5-0.2-1.3-0.1-2.8-0.5zm0-14.5v13.2q1.2 0.2 2.2 0.3 0.9 0.2 1.6 0.2 2.5 0 4.2-1.9 1.8-1.9 1.8-4.9 0-2.1-0.8-3.8-0.9-1.8-2.4-2.7-1.6-0.9-3.5-0.9-1.2 0-3.1 0.5zm38.1-0.6h-8.7v12.5h7q2.7 0 3.6-0.8 1.3-1.1 1.4-3.8h0.9v11.1h-0.9q-0.3-2.3-0.7-3-0.4-0.8-1.3-1.3-1-0.5-3-0.5h-7v10.5q0 2.1 0.2 2.6 0.2 0.4 0.7 0.7 0.4 0.3 1.8 0.3h5.3q2.7 0 4-0.4 1.2-0.4 2.3-1.5 1.5-1.4 3-4.4h0.9l-2.7 8h-24.5v-0.9h1.1q1.1 0 2.1-0.5 0.8-0.4 1-1.1 0.3-0.8 0.3-3.1v-20.6q0-3.1-0.6-3.8-0.8-0.9-2.8-0.9h-1.1v-0.9h24.5l0.3 7h-0.9q-0.5-2.5-1.1-3.5-0.6-0.9-1.7-1.4-1-0.3-3.4-0.3zm-1.2 0h-8.7v12.5h6.9q2.8 0 3.7-0.8 1.2-1.1 1.3-3.8h0.9v11.1h-0.9q-0.3-2.3-0.6-3-0.4-0.8-1.4-1.3-1-0.5-3-0.5h-6.9v10.5q0 2.1 0.1 2.6 0.2 0.4 0.7 0.7 0.5 0.3 1.8 0.3h5.4q2.7 0 3.9-0.4 1.2-0.4 2.3-1.5 1.5-1.4 3-4.4h0.9l-2.7 8h-24.5v-0.9h1.1q1.2 0 2.2-0.5 0.7-0.4 1-1.1 0.3-0.8 0.3-3.1v-20.6q0-3.1-0.6-3.8-0.9-0.9-2.9-0.9h-1.1v-0.9h24.5l0.4 7h-1q-0.4-2.5-1.1-3.5-0.5-0.9-1.7-1.4-1-0.3-3.3-0.3zm45.5 29.1v0.9h-8.4l-10.8-14.8q-1.2 0-1.9 0-0.3 0-0.7 0-0.3 0-0.7 0v9.2q0 3 0.6 3.7 0.9 1 2.7 1h1.2v0.9h-13.6v-0.9h1.2q2 0 2.9-1.3 0.5-0.7 0.5-3.4v-20.5q0-3-0.7-3.8-0.9-1-2.7-1h-1.2v-0.9h11.6q5.1 0 7.5 0.8 2.4 0.7 4 2.7 1.7 2 1.7 4.7 0 2.9-1.9 5.1-1.9 2.2-5.9 3l6.6 9.2q2.2 3.1 3.8 4.1 1.6 1.1 4.2 1.3zm-22.5-28.6v13.2q0.4 0 0.8 0 0.3 0 0.5 0 4.5 0 6.8-2 2.4-1.9 2.4-5 0-3-1.9-4.8-1.9-1.9-4.9-1.9-1.4 0-3.7 0.5zm21.3 28.6v0.9h-8.5l-10.8-14.8q-1.2 0-1.9 0-0.3 0-0.7 0-0.3 0-0.7 0v9.2q0 3 0.7 3.7 0.9 1 2.6 1h1.3v0.9h-13.6v-0.9h1.2q2 0 2.8-1.3 0.5-0.7 0.5-3.4v-20.5q0-3-0.6-3.8-0.9-1-2.7-1h-1.2v-0.9h11.5q5.1 0 7.5 0.8 2.4 0.7 4.1 2.7 1.7 2 1.7 4.7 0 2.9-2 5.1-1.9 2.2-5.9 3l6.6 9.2q2.2 3.1 3.9 4.1 1.6 1.1 4.2 1.3zm-22.6-28.6v13.2q0.5 0 0.8 0 0.3 0 0.5 0 4.6 0 6.9-2 2.3-1.9 2.3-5 0-3-1.9-4.8-1.8-1.9-4.9-1.9-1.4 0-3.7 0.5zm48.6 23.4l-1.9-4.5h-12.3l-2.2 5q-0.8 1.8-0.8 2.8 0 0.7 0.7 1.2 0.7 0.6 3 0.7v0.9h-10v-0.9q2-0.3 2.6-0.9 1.2-1.1 2.6-4.5l11.2-26.2h0.8l11.1 26.4q1.3 3.2 2.4 4.2 1.1 0.9 3 1v0.9h-12.5v-0.9q1.9 0 2.6-0.6 0.6-0.5 0.6-1.3 0-1-0.9-3.3zm-13.5-6.3h10.9l-5.4-12.8zm12.3 6.3l-1.9-4.6h-12.4l-2.1 5q-0.8 1.9-0.8 2.8 0 0.7 0.7 1.3 0.7 0.5 3 0.7v0.9h-10v-0.9q2-0.3 2.5-0.9 1.2-1.1 2.7-4.6l11.2-26.1h0.8l11.1 26.4q1.3 3.2 2.4 4.2 1.1 0.9 3 1v0.9h-12.5v-0.9q1.9-0.1 2.5-0.6 0.7-0.6 0.7-1.3 0-1.1-0.9-3.3zm-13.5-6.3h10.9l-5.4-12.8zm23.4-19.5h25.9l0.4 7.5h-0.9q-0.3-2-0.7-2.8-0.8-1.4-2-2-1.2-0.7-3.2-0.7h-4.4v24.3q0 3 0.6 3.7 0.9 1 2.7 1h1.1v0.8h-13.4v-0.8h1.1q2 0 2.9-1.3 0.5-0.7 0.5-3.4v-24.3h-3.8q-2.3 0-3.2 0.4-1.2 0.4-2.1 1.7-0.9 1.2-1 3.4h-0.9zm-1.3 0h26l0.3 7.5h-0.9q-0.2-2-0.7-2.9-0.7-1.3-1.9-2-1.2-0.6-3.2-0.6h-4.5v24.3q0 2.9 0.7 3.6 0.9 1 2.7 1h1.1v0.9h-13.5v-0.9h1.2q2 0 2.8-1.2 0.5-0.8 0.5-3.4v-24.3h-3.8q-2.2 0-3.2 0.3-1.2 0.5-2 1.7-0.9 1.3-1.1 3.5h-0.9zm46.8-0.8q6.2 0 10.7 4.7 4.5 4.7 4.5 11.8 0 7.2-4.5 12-4.6 4.8-11.1 4.8-6.6 0-11-4.7-4.5-4.7-4.5-12.1 0-7.5 5.2-12.3 4.4-4.2 10.7-4.2zm-0.5 1.7q-4.2 0-6.8 3.2-3.2 3.9-3.2 11.5 0 7.8 3.3 12 2.6 3.2 6.8 3.2 4.4 0 7.3-3.5 3-3.5 3-11 0-8.2-3.2-12.2-2.6-3.2-7.2-3.2zm-0.8-1.7q6.2 0 10.7 4.7 4.6 4.7 4.6 11.8 0 7.2-4.6 12-4.6 4.8-11.1 4.8-6.5 0-11-4.7-4.5-4.7-4.5-12.1 0-7.5 5.2-12.3 4.5-4.2 10.7-4.2zm-0.4 1.7q-4.3 0-6.9 3.2-3.2 3.9-3.2 11.5 0 7.8 3.3 12 2.6 3.2 6.8 3.2 4.5 0 7.4-3.5 2.9-3.5 2.9-11 0-8.2-3.2-12.2-2.6-3.2-7.1-3.2zm52.5 30v0.8h-8.5l-10.7-14.8q-1.2 0-2 0-0.3 0-0.6 0-0.4 0-0.7 0v9.2q0 3 0.6 3.7 0.9 1.1 2.7 1.1h1.2v0.8h-13.6v-0.8h1.2q2 0 2.9-1.3 0.5-0.8 0.5-3.5v-20.5q0-3-0.7-3.7-0.9-1.1-2.7-1.1h-1.2v-0.8h11.6q5 0 7.4 0.7 2.5 0.7 4.1 2.7 1.7 2 1.7 4.7 0 3-1.9 5.1-1.9 2.2-5.9 3.1l6.5 9.1q2.3 3.1 3.9 4.2 1.6 1 4.2 1.3zm-22.5-28.7v13.2q0.4 0 0.7 0 0.4 0 0.6 0 4.5 0 6.8-1.9 2.3-2 2.3-5.1 0-2.9-1.8-4.8-1.9-1.9-5-1.9-1.3 0-3.6 0.5zm21.3 28.7v0.8h-8.5l-10.8-14.8q-1.2 0-1.9 0-0.3 0-0.7 0-0.3 0-0.7 0v9.2q0 3 0.6 3.7 0.9 1.1 2.7 1.1h1.3v0.8h-13.7v-0.8h1.2q2.1 0 2.9-1.3 0.5-0.8 0.5-3.5v-20.5q0-3-0.6-3.7-1-1.1-2.8-1.1h-1.2v-0.8h11.6q5.1 0 7.5 0.7 2.4 0.7 4 2.7 1.7 2 1.7 4.7 0 3-1.9 5.1-1.9 2.2-5.9 3.1l6.6 9.1q2.2 3.1 3.8 4.2 1.7 1 4.3 1.3zm-22.6-28.7v13.2q0.4 0 0.8 0 0.3 0 0.5 0 4.5 0 6.8-1.9 2.4-2 2.4-5.1 0-2.9-1.9-4.8-1.9-1.9-4.9-1.9-1.4 0-3.7 0.5zm38.4 28.7h1.1v0.8h-13.6v-0.8h1.1q2 0 2.9-1.2 0.5-0.7 0.5-3.6v-20.5q0-2.4-0.3-3.2-0.2-0.6-0.9-1-1.1-0.6-2.2-0.6h-1.1v-0.8h13.6v0.8h-1.1q-2 0-2.9 1.2-0.6 0.7-0.6 3.6v20.5q0 2.4 0.3 3.2 0.3 0.6 1 1 1 0.6 2.2 0.6zm-1.3 0h1.1v0.8h-13.6v-0.8h1.2q1.9 0 2.8-1.2 0.6-0.7 0.6-3.6v-20.5q0-2.4-0.3-3.2-0.3-0.6-1-1-1-0.6-2.1-0.6h-1.2v-0.8h13.6v0.8h-1.1q-2 0-2.8 1.2-0.6 0.7-0.6 3.6v20.5q0 2.4 0.3 3.2 0.2 0.6 1 1 1 0.6 2.1 0.6zm-270.7 25.2v-0.8h9.8v0.8q-2 0.2-3 1-1 0.7-3.1 4.4-2 3.7-4.6 7 2.1 2.4 3.7 3.4 1.7 1 3.3 1 1.7 0 2.8-0.9 1.1-0.9 1.6-2.6l0.8 0.6q-0.8 3.3-2.7 4.9-2 1.6-4.5 1.6-1.9 0-3.9-1.1-2-1-4.3-3.5-3 2.6-5.3 3.6-2.3 1-5 1-3.8 0-6.1-2.1-2.3-2.1-2.3-4.9 0-2.9 2.1-5.7 2-2.8 7.6-5.8-1.1-2.5-1.5-4-0.4-1.6-0.4-3 0-4 3-6.1 2.3-1.7 5.2-1.7 2.8 0 4.5 1.7 1.8 1.6 1.8 4 0 2.5-1.7 4.4-1.7 1.9-6 4.1 3 5.3 6.2 9.7 4.1-4.9 4.1-8.3 0-1.1-0.7-1.9-0.5-0.6-1.4-0.8zm-9-0.2q2.9-1.4 4.3-3.2 1.5-1.7 1.5-3.9 0-1.7-1.1-2.8-1-1.1-2.5-1.1-2.1 0-3.1 1.5-1.1 1.4-1.1 2.7 0 1.2 0.4 2.6 0.4 1.4 1.6 4.2zm3.6 14.6q-3.1-4.2-4.3-6.1-1.2-2-2.6-4.9-2.8 1.7-4.2 3.6-1.4 1.9-1.4 4.2 0 2.5 1.6 4.4 1.6 1.9 4.3 1.9 1.5 0 2.9-0.6 1.4-0.5 3.7-2.5zm4.1-14.4v-0.8h9.8v0.8q-2 0.2-3 1-1 0.7-3 4.4-2.1 3.7-4.7 7 2.1 2.4 3.8 3.4 1.6 1 3.3 1 1.6 0 2.7-0.9 1.1-0.9 1.6-2.6l0.9 0.6q-0.9 3.3-2.8 4.9-1.9 1.6-4.5 1.6-1.9 0-3.9-1.1-2-1-4.3-3.5-2.9 2.6-5.3 3.6-2.3 1-4.9 1-3.9 0-6.2-2.1-2.2-2.1-2.2-4.9 0-2.9 2-5.7 2-2.8 7.7-5.8-1.1-2.5-1.5-4-0.4-1.6-0.4-3 0-4 2.9-6.1 2.3-1.7 5.2-1.7 2.8 0 4.6 1.7 1.7 1.6 1.7 4 0 2.5-1.7 4.4-1.7 1.9-6 4.1 3 5.3 6.2 9.7 4.2-4.9 4.2-8.3 0-1.1-0.7-1.9-0.6-0.6-1.5-0.8zm-9-0.2q2.9-1.4 4.4-3.2 1.4-1.7 1.4-3.9 0-1.7-1-2.8-1.1-1.1-2.6-1.1-2 0-3.1 1.5-1 1.4-1 2.7 0 1.2 0.4 2.6 0.4 1.4 1.5 4.2zm3.7 14.6q-3.1-4.2-4.3-6.1-1.2-2-2.6-4.9-2.9 1.7-4.3 3.6-1.4 1.9-1.4 4.2 0 2.5 1.6 4.4 1.6 1.9 4.4 1.9 1.5 0 2.8-0.6 1.4-0.5 3.8-2.5zm43.8-9.6v9.2q0 3 0.7 3.7 0.9 1.1 2.7 1.1h1.2v0.8h-13.6v-0.8h1.2q2 0 2.9-1.3 0.4-0.8 0.4-3.5v-20.5q0-3-0.6-3.7-0.9-1.1-2.7-1.1h-1.2v-0.8h11.6q4.3 0 6.8 0.8 2.4 0.9 4.1 3 1.7 2.1 1.7 4.9 0 3.9-2.6 6.4-2.5 2.4-7.2 2.4-1.2 0-2.5-0.2-1.3-0.1-2.9-0.4zm0-14.6v13.2q1.3 0.3 2.2 0.4 1 0.1 1.7 0.1 2.4 0 4.2-1.9 1.8-1.9 1.8-4.9 0-2.1-0.9-3.8-0.8-1.8-2.4-2.7-1.5-0.8-3.5-0.8-1.2 0-3.1 0.4zm-1.2 14.6v9.2q0 3 0.6 3.7 0.9 1.1 2.7 1.1h1.2v0.8h-13.6v-0.8h1.2q2 0 2.9-1.3 0.5-0.8 0.5-3.5v-20.5q0-3-0.7-3.7-0.9-1.1-2.7-1.1h-1.2v-0.8h11.7q4.2 0 6.7 0.8 2.5 0.9 4.1 3 1.7 2.1 1.7 4.9 0 3.9-2.5 6.4-2.6 2.4-7.3 2.4-1.1 0-2.5-0.2-1.3-0.1-2.8-0.4zm0-14.6v13.2q1.2 0.3 2.2 0.4 0.9 0.1 1.6 0.1 2.4 0 4.2-1.9 1.8-1.9 1.8-4.9 0-2.1-0.9-3.8-0.8-1.8-2.3-2.7-1.6-0.8-3.6-0.8-1.2 0-3 0.4zm38.9 23.4l-2-4.6h-12.3l-2.1 5q-0.8 1.9-0.8 2.8 0 0.7 0.7 1.3 0.7 0.5 3 0.7v0.8h-10.1v-0.8q2-0.4 2.6-0.9 1.2-1.2 2.7-4.6l11.2-26.2h0.8l11 26.5q1.4 3.2 2.5 4.1 1.1 1 3 1.1v0.8h-12.5v-0.8q1.9-0.1 2.5-0.7 0.7-0.5 0.7-1.3 0-1-0.9-3.2zm-13.5-6.3h10.9l-5.4-12.9zm12.2 6.3l-1.9-4.5h-12.3l-2.2 5q-0.8 1.8-0.8 2.7 0 0.8 0.7 1.3 0.7 0.6 3 0.7v0.9h-10v-0.9q2-0.3 2.6-0.9 1.2-1.1 2.6-4.6l11.2-26.1h0.8l11.1 26.4q1.3 3.2 2.4 4.2 1.1 0.9 3.1 1v0.9h-12.6v-0.9q1.9-0.1 2.6-0.6 0.7-0.5 0.7-1.3 0-1.1-1-3.3zm-13.5-6.3h10.9l-5.3-12.8zm59.2 11.5v0.8h-8.5l-10.7-14.8q-1.2 0-2 0-0.3 0-0.6 0-0.4 0-0.7 0v9.2q0 3 0.6 3.7 0.9 1.1 2.7 1.1h1.2v0.8h-13.6v-0.8h1.2q2 0 2.9-1.3 0.5-0.8 0.5-3.5v-20.5q0-3-0.7-3.7-0.9-1.1-2.7-1.1h-1.2v-0.8h11.6q5.1 0 7.4 0.7 2.5 0.7 4.1 2.7 1.7 2 1.7 4.7 0 3-1.9 5.1-1.9 2.2-5.9 3.1l6.5 9.1q2.3 3.1 3.9 4.2 1.6 1 4.2 1.3zm-22.5-28.7v13.2q0.4 0 0.7 0 0.4 0 0.6 0 4.5 0 6.8-1.9 2.3-2 2.3-5 0-3-1.8-4.9-1.9-1.9-5-1.9-1.3 0-3.6 0.5zm21.3 28.7v0.8h-8.5l-10.8-14.8q-1.2 0-1.9 0-0.3 0-0.7 0-0.3 0-0.7 0v9.2q0 3 0.7 3.7 0.8 1.1 2.6 1.1h1.3v0.8h-13.6v-0.8h1.1q2.1 0 2.9-1.3 0.5-0.8 0.5-3.5v-20.5q0-3-0.6-3.7-0.9-1.1-2.8-1.1h-1.1v-0.8h11.5q5.1 0 7.5 0.7 2.4 0.7 4.1 2.7 1.6 2 1.6 4.7 0 3-1.9 5.1-1.9 2.2-5.9 3.1l6.6 9.1q2.2 3.1 3.8 4.2 1.7 1 4.3 1.3zm-22.6-28.7v13.2q0.4 0 0.8 0 0.3 0 0.5 0 4.6 0 6.9-1.9 2.3-2 2.3-5 0-3-1.9-4.9-1.9-1.9-4.9-1.9-1.4 0-3.7 0.5zm23.7-2.2h25.9l0.4 7.4h-0.9q-0.3-1.9-0.7-2.8-0.8-1.4-2-2-1.2-0.6-3.2-0.6h-4.4v24.2q0 3 0.6 3.7 0.9 1 2.7 1h1.1v0.8h-13.4v-0.8h1.1q2 0 2.9-1.2 0.5-0.8 0.5-3.5v-24.2h-3.8q-2.3 0-3.2 0.3-1.2 0.4-2.1 1.7-0.9 1.3-1 3.4h-0.9zm-1.3 0h26l0.3 7.5h-0.9q-0.2-2-0.7-2.8-0.7-1.4-1.9-2-1.2-0.7-3.2-0.7h-4.5v24.3q0 2.9 0.7 3.6 0.9 1 2.7 1h1.1v0.9h-13.5v-0.9h1.2q2 0 2.8-1.2 0.5-0.7 0.5-3.4v-24.3h-3.8q-2.2 0-3.2 0.3-1.2 0.5-2 1.8-0.9 1.2-1.1 3.4h-0.9zm29.5 0.8v-0.8h8.6l19.4 23.8v-18.3q0-2.9-0.6-3.7-0.9-1-2.8-1h-1.1v-0.8h11.1v0.8h-1.1q-2.1 0-2.9 1.3-0.5 0.7-0.5 3.4v26.8h-0.9l-20.9-25.6v19.5q0 3 0.6 3.7 0.9 1 2.8 1h1.1v0.9h-11.1v-0.9h1.1q2.1 0 2.9-1.2 0.5-0.8 0.5-3.5v-22.1q-1.4-1.6-2.1-2.1-0.7-0.5-2.1-0.9-0.7-0.3-2-0.3zm-1.3 0v-0.8h8.6l19.4 23.8v-18.3q0-2.9-0.6-3.7-0.9-1-2.8-1h-1.1v-0.8h11.1v0.8h-1.1q-2 0-2.9 1.3-0.5 0.7-0.5 3.4v26.8h-0.8l-21-25.6v19.5q0 3 0.6 3.7 0.9 1 2.8 1h1.1v0.9h-11v-0.9h1.1q2 0 2.8-1.2 0.6-0.8 0.6-3.5v-22.1q-1.4-1.6-2.2-2.1-0.7-0.5-2-0.9-0.7-0.3-2.1-0.3zm56.6 0.9h-8.7v12.6h7q2.7 0 3.6-0.9 1.2-1 1.4-3.7h0.8v11h-0.8q-0.4-2.3-0.7-3-0.4-0.8-1.4-1.3-0.9-0.4-2.9-0.4h-7v10.5q0 2.1 0.2 2.5 0.2 0.5 0.6 0.8 0.5 0.2 1.8 0.2h5.4q2.7 0 3.9-0.4 1.2-0.3 2.4-1.4 1.4-1.5 2.9-4.4h1l-2.8 8h-24.5v-0.9h1.2q1.1 0 2.1-0.6 0.7-0.3 1-1.1 0.3-0.7 0.3-3v-20.7q0-3-0.6-3.7-0.9-1-2.8-1h-1.2v-0.8h24.5l0.4 6.9h-0.9q-0.5-2.5-1.1-3.4-0.6-0.9-1.8-1.4-0.9-0.4-3.3-0.4zm-1.3 0h-8.7v12.6h7q2.7 0 3.6-0.9 1.3-1 1.4-3.7h0.9v11h-0.9q-0.3-2.3-0.7-3-0.4-0.8-1.3-1.3-1-0.4-3-0.4h-7v10.5q0 2.1 0.2 2.5 0.2 0.5 0.7 0.8 0.4 0.2 1.7 0.2h5.4q2.7 0 3.9-0.4 1.3-0.3 2.4-1.4 1.4-1.5 3-4.4h0.9l-2.7 8h-24.5v-0.9h1.1q1.1 0 2.1-0.6 0.8-0.3 1-1.1 0.3-0.7 0.3-3v-20.7q0-3-0.6-3.7-0.8-1-2.8-1h-1.1v-0.8h24.5l0.3 6.9h-0.9q-0.5-2.5-1.1-3.4-0.6-0.9-1.8-1.4-0.9-0.4-3.3-0.4zm45.6 29.2v0.9h-8.5l-10.7-14.9q-1.2 0-2 0-0.3 0-0.6 0-0.4 0-0.8 0v9.2q0 3 0.7 3.8 0.9 1 2.7 1h1.2v0.9h-13.6v-0.9h1.2q2 0 2.9-1.3 0.5-0.8 0.5-3.5v-20.5q0-3-0.7-3.7-0.9-1.1-2.7-1.1h-1.2v-0.8h11.6q5 0 7.4 0.7 2.4 0.7 4.1 2.7 1.7 2 1.7 4.8 0 2.9-1.9 5-1.9 2.2-5.9 3.1l6.5 9.1q2.3 3.1 3.9 4.2 1.6 1 4.2 1.3zm-22.6-28.7v13.2q0.5 0 0.8 0 0.3 0 0.5 0 4.6 0 6.9-1.9 2.3-2 2.3-5 0-3-1.9-4.9-1.8-1.8-4.9-1.8-1.3 0-3.7 0.4zm21.3 28.7v0.9h-8.4l-10.8-14.9q-1.2 0-1.9 0-0.4 0-0.7 0-0.4 0-0.7 0v9.2q0 3 0.6 3.8 0.9 1 2.7 1h1.2v0.9h-13.6v-0.9h1.2q2 0 2.9-1.3 0.5-0.8 0.5-3.5v-20.5q0-3-0.7-3.7-0.9-1.1-2.7-1.1h-1.2v-0.8h11.6q5.1 0 7.5 0.7 2.4 0.7 4 2.7 1.7 2 1.7 4.8 0 2.9-1.9 5-1.9 2.2-5.9 3.1l6.6 9.1q2.2 3.1 3.8 4.2 1.6 1 4.2 1.3zm-22.5-28.7v13.2q0.4 0 0.7 0 0.4 0 0.6 0 4.5 0 6.8-1.9 2.3-2 2.3-5 0-3-1.8-4.9-1.9-1.8-5-1.8-1.3 0-3.6 0.4zm45.8-3h0.9v11h-0.9q-0.4-3.1-1.5-5-1.1-1.9-3.1-3-2-1.1-4.2-1.1-2.4 0-4 1.5-1.6 1.5-1.6 3.4 0 1.4 1 2.6 1.5 1.8 6.9 4.7 4.5 2.4 6.1 3.7 1.6 1.3 2.5 3 0.9 1.7 0.9 3.6 0 3.7-2.8 6.3-2.8 2.6-7.2 2.6-1.4 0-2.6-0.2-0.7-0.1-3-0.9-2.3-0.7-2.9-0.7-0.6 0-1 0.3-0.3 0.4-0.4 1.5h-0.9v-10.9h0.9q0.6 3.4 1.6 5.1 1 1.7 3.1 2.8 2.2 1.2 4.7 1.2 2.9 0 4.6-1.6 1.7-1.5 1.7-3.7 0-1.1-0.6-2.3-0.7-1.2-2-2.2-0.9-0.7-5-3-4.1-2.3-5.8-3.7-1.7-1.3-2.6-3-0.9-1.6-0.9-3.6 0-3.4 2.6-5.9 2.6-2.5 6.7-2.5 2.5 0 5.4 1.3 1.3 0.6 1.8 0.6 0.6 0 1-0.4 0.4-0.4 0.6-1.5zm-1.2 0h0.8v11h-0.8q-0.5-3.1-1.6-5-1-1.9-3.1-3-2-1.1-4.1-1.1-2.5 0-4.1 1.5-1.6 1.5-1.6 3.4 0 1.4 1 2.6 1.5 1.8 7 4.7 4.4 2.4 6 3.7 1.7 1.3 2.5 3 0.9 1.7 0.9 3.6 0 3.7-2.8 6.3-2.8 2.6-7.2 2.6-1.4 0-2.6-0.2-0.7-0.1-3-0.9-2.3-0.7-2.9-0.7-0.6 0-0.9 0.3-0.4 0.4-0.5 1.5h-0.9v-10.9h0.9q0.6 3.4 1.6 5.1 1.1 1.7 3.2 2.8 2.1 1.2 4.6 1.2 3 0 4.6-1.6 1.8-1.5 1.8-3.7 0-1.1-0.7-2.3-0.6-1.2-2-2.2-0.9-0.7-5-3-4.1-2.3-5.8-3.7-1.7-1.3-2.6-3-0.9-1.6-0.9-3.6 0-3.4 2.6-5.9 2.7-2.5 6.7-2.5 2.5 0 5.4 1.3 1.3 0.6 1.8 0.6 0.6 0 1-0.4 0.4-0.4 0.7-1.5z"/>
</svg>